<?xml version="1.0"?>
<svg width="866.33071" height="605.73993" xmlns="http://www.w3.org/2000/svg" xmlns:svg="http://www.w3.org/2000/svg" data-name="Layer 1">
 <g class="layer">
  <title>Layer 1</title>
  <rect fill="#e6e6e6" height="343.11" id="svg_16" transform="rotate(-20 189 373.45)" width="551" x="98" y="184.37"/>
  <rect fill="#fff" height="65.6" id="svg_17" transform="rotate(-20 189 373.45)" width="100.92" x="134.95" y="250.47"/>
  <rect fill="#fff" height="65.6" id="svg_18" transform="rotate(-20 189 373.45)" width="100.92" x="260.34" y="250.47"/>
  <rect fill="#fff" height="65.6" id="svg_19" transform="rotate(-20 189 373.45)" width="100.92" x="385.74" y="250.47"/>
  <rect fill="#fff" height="65.6" id="svg_20" transform="rotate(-20 189 373.45)" width="100.92" x="511.14" y="250.47"/>
  <rect fill="#fff" height="65.6" id="svg_21" transform="rotate(-20 189 373.45)" width="100.92" x="134.95" y="343.31"/>
  <rect fill="#fff" height="65.6" id="svg_22" transform="rotate(-20 189 373.45)" width="100.92" x="260.34" y="343.31"/>
  <rect fill="#fff" height="65.6" id="svg_23" transform="rotate(-20 189 373.45)" width="100.92" x="385.74" y="343.31"/>
  <rect fill="#fff" height="65.6" id="svg_24" transform="rotate(-20 189 373.45)" width="100.92" x="511.14" y="343.31"/>
  <rect fill="#fff" height="65.6" id="svg_25" transform="rotate(-20 189 373.45)" width="100.92" x="134.95" y="436.15"/>
  <rect fill="#fff" height="65.6" id="svg_26" transform="rotate(-20 189 373.45)" width="100.92" x="260.34" y="436.15"/>
  <rect fill="#fff" height="65.6" id="svg_27" transform="rotate(-20 189 373.45)" width="100.92" x="385.74" y="436.15"/>
  <rect fill="#fff" height="65.6" id="svg_28" transform="rotate(-20 189 373.45)" width="100.92" x="511.14" y="436.15"/>
  <circle cx="242.31" cy="209.6" fill="#fff" id="svg_29" r="15.14" transform="rotate(-20 189 373.45)"/>
  <circle cx="492.58" cy="209.6" fill="#fff" id="svg_30" r="15.14" transform="rotate(-20 189 373.45)"/>
  <rect fill="#e6e6e6" height="69.63" id="svg_31" transform="rotate(-20 189 373.45)" width="12.11" x="236.25" y="144"/>
  <rect fill="#e6e6e6" height="69.63" id="svg_32" transform="rotate(-20 189 373.45)" width="12.11" x="486.53" y="144"/>
  <path d="m584.42,283.26a22.76,22.76 0 1 1 -3.53,-12.19a22.76,22.76 0 0 1 3.53,12.19z" fill="#cdc1ff" id="svg_33" transform="rotate(-20 189 373.45)"/>
  <path d="m580.89,271.07l-22.46,22.46c-1.41,-2.18 -9.28,-12.34 -9.28,-12.34a31.83,31.83 0 0 1 3.22,-2.84l6.52,8.69l19.37,-19.36a22.73,22.73 0 0 1 2.63,3.39z" fill="#fff" id="svg_34" transform="rotate(-20 189 373.45)"/>
  <path d="m333.63,376.11a22.76,22.76 0 1 1 -3.53,-12.19a22.76,22.76 0 0 1 3.53,12.19z" fill="#cdc1ff" id="svg_35" transform="rotate(-20 189 373.45)"/>
  <path d="m330.1,363.92l-22.46,22.46c-1.41,-2.19 -9.28,-12.35 -9.28,-12.35a31.83,31.83 0 0 1 3.22,-2.84l6.52,8.7l19.37,-19.37a22.73,22.73 0 0 1 2.63,3.4z" fill="#fff" id="svg_36" transform="rotate(-20 189 373.45)"/>
  <path d="m208.23,376.11a22.76,22.76 0 1 1 -3.52,-12.19a22.76,22.76 0 0 1 3.52,12.19z" fill="#cdc1ff" id="svg_37" transform="rotate(-20 189 373.45)"/>
  <path d="m204.71,363.92l-22.47,22.46c-1.41,-2.19 -9.28,-12.35 -9.28,-12.35a31.83,31.83 0 0 1 3.22,-2.84l6.53,8.7l19.36,-19.37a22.73,22.73 0 0 1 2.64,3.4z" fill="#fff" id="svg_38" transform="rotate(-20 189 373.45)"/>
 </g>
</svg>