<?xml version="1.0"?>
<svg width="794.23533" height="458.82848" xmlns="http://www.w3.org/2000/svg" xmlns:svg="http://www.w3.org/2000/svg" data-name="Layer 1">
 <g class="layer">
  <title>Layer 1</title>
  <path d="m632.76,447.23a6.79,6.79 0 0 1 -3.34,-0.89l-193.5,-109.39a6.83,6.83 0 0 1 -2.58,-9.3l152.41,-269.56a6.82,6.82 0 0 1 9.29,-2.58l193.49,109.39a6.83,6.83 0 0 1 2.58,9.3l-152.4,269.56a6.78,6.78 0 0 1 -4.11,3.22a6.86,6.86 0 0 1 -1.84,0.25z" fill="#e6e6e6" id="svg_1"/>
  <rect fill="#fff" height="234.92" id="svg_2" width="1.58" x="437.56" y="707.11"/>
  <rect fill="#fff" height="234.92" id="svg_3" width="1.58" x="394.9" y="732.26"/>
  <rect fill="#fff" height="234.92" id="svg_4" width="1.58" x="352.25" y="757.4"/>
  <rect fill="#fff" height="234.92" id="svg_5" width="1.58" x="309.6" y="782.55"/>
  <rect fill="#fff" height="234.92" id="svg_6" width="1.58" x="266.94" y="807.69"/>
  <rect fill="#fff" height="234.92" id="svg_7" width="1.58" x="224.29" y="832.84"/>
  <rect fill="#fff" height="234.92" id="svg_8" width="1.58" x="181.63" y="857.98"/>
  <rect fill="#fff" height="234.92" id="svg_9" width="1.58" x="138.98" y="883.13"/>
  <rect fill="#fff" height="234.92" id="svg_10" width="1.58" x="96.32" y="908.27"/>
  <rect fill="#fff" height="234.92" id="svg_11" width="1.58" x="53.67" y="933.41"/>
  <rect fill="#fff" height="234.92" id="svg_12" width="1.58" x="11.01" y="958.56"/>
  <path d="m614.76,406.23a6.79,6.79 0 0 1 -3.34,-0.89l-193.5,-109.39a6.83,6.83 0 0 1 -2.58,-9.3l152.41,-269.56a6.82,6.82 0 0 1 9.29,-2.58l193.49,109.39a6.83,6.83 0 0 1 2.58,9.3l-152.4,269.56a6.78,6.78 0 0 1 -4.11,3.22a6.86,6.86 0 0 1 -1.84,0.25z" fill="#f2f2f2" id="svg_13"/>
  <rect fill="#fff" height="234.92" id="svg_14" width="1.58" x="446.11" y="629.62"/>
  <rect fill="#fff" height="234.92" id="svg_15" width="1.58" x="403.45" y="654.77"/>
  <rect fill="#fff" height="234.92" id="svg_16" width="1.58" x="360.8" y="679.91"/>
  <rect fill="#fff" height="234.92" id="svg_17" width="1.58" x="318.14" y="705.06"/>
  <rect fill="#fff" height="234.92" id="svg_18" width="1.58" x="275.49" y="730.2"/>
  <rect fill="#fff" height="234.92" id="svg_19" width="1.58" x="232.84" y="755.35"/>
  <rect fill="#fff" height="234.92" id="svg_20" width="1.58" x="190.18" y="780.49"/>
  <rect fill="#fff" height="234.92" id="svg_21" width="1.58" x="147.53" y="805.63"/>
  <rect fill="#fff" height="234.92" id="svg_22" width="1.58" x="104.87" y="830.78"/>
  <rect fill="#fff" height="234.92" id="svg_23" width="1.58" x="62.22" y="855.92"/>
  <rect fill="#fff" height="234.92" id="svg_24" width="1.58" x="19.56" y="881.07"/>
  <path d="m595.48,12l-309.23,0l0,430l309.23,0a4.19,4.19 0 0 0 4.19,-4.19l0,-421.63a4.19,4.19 0 0 0 -4.19,-4.18zm-291.78,418.13a7.68,7.68 0 1 1 7.68,-7.68a7.68,7.68 0 0 1 -7.68,7.68zm0,-39.09a7.68,7.68 0 1 1 7.68,-7.68a7.68,7.68 0 0 1 -7.68,7.68zm0,-39.09a7.68,7.68 0 1 1 7.68,-7.68a7.68,7.68 0 0 1 -7.68,7.68zm0,-39.09a7.68,7.68 0 1 1 7.68,-7.68a7.68,7.68 0 0 1 -7.68,7.68zm0,-39.09a7.68,7.68 0 1 1 7.68,-7.68a7.68,7.68 0 0 1 -7.68,7.68zm0,-39.1a7.68,7.68 0 1 1 7.68,-7.67a7.68,7.68 0 0 1 -7.68,7.67zm0,-39.09a7.68,7.68 0 1 1 7.68,-7.68a7.68,7.68 0 0 1 -7.68,7.68zm0,-39.09a7.68,7.68 0 1 1 7.68,-7.68a7.68,7.68 0 0 1 -7.68,7.68zm0,-39.09a7.68,7.68 0 1 1 7.68,-7.68a7.68,7.68 0 0 1 -7.68,7.68zm0,-39.09a7.68,7.68 0 1 1 7.68,-7.68a7.68,7.68 0 0 1 -7.68,7.68zm0,-39.09a7.68,7.68 0 1 1 7.68,-7.68a7.68,7.68 0 0 1 -7.68,7.68z" fill="#3f3d56" id="svg_25"/>
  <path d="m286.25,35.73c-2.08,0 -20.25,-0.1 -20.25,-3.49s18.17,-3.49 20.25,-3.49l0,1.4c-10.71,0 -17.65,1.19 -18.76,2.09c1.11,0.9 8.05,2.09 18.76,2.09c10.67,0 17.61,-1.19 18.75,-2.08c-0.54,-0.39 -2.76,-1.19 -8.71,-1.71l0.12,-1.39c10.08,0.87 10.08,2.48 10.08,3.09c0,3.39 -18.17,3.49 -20.24,3.49z" fill="#2f2e41" id="svg_26"/>
  <path d="m286.25,74.12c-2.08,0 -20.25,-0.1 -20.25,-3.49s18.17,-3.49 20.25,-3.49l0,1.4c-10.71,0 -17.65,1.2 -18.76,2.09c1.11,0.9 8.05,2.1 18.76,2.1c10.67,0 17.61,-1.2 18.75,-2.09c-0.54,-0.39 -2.76,-1.19 -8.71,-1.7l0.12,-1.39c10.08,0.87 10.08,2.48 10.08,3.08c0,3.39 -18.17,3.49 -20.24,3.49z" fill="#2f2e41" id="svg_27"/>
  <path d="m286.25,113.21c-2.08,0 -20.25,-0.09 -20.25,-3.49s18.17,-3.49 20.25,-3.49l0,1.4c-10.71,0 -17.65,1.2 -18.76,2.09c1.11,0.9 8.05,2.1 18.76,2.1c10.67,0 17.61,-1.2 18.75,-2.09c-0.54,-0.38 -2.76,-1.19 -8.71,-1.7l0.12,-1.39c10.08,0.87 10.08,2.48 10.08,3.08c0,3.4 -18.17,3.49 -20.24,3.49z" fill="#2f2e41" id="svg_28"/>
  <path d="m286.25,152.3c-2.08,0 -20.25,-0.09 -20.25,-3.49s18.17,-3.49 20.25,-3.49l0,1.4c-10.71,0 -17.65,1.2 -18.76,2.09c1.11,0.9 8.05,2.1 18.76,2.1c10.67,0 17.61,-1.19 18.75,-2.09c-0.54,-0.38 -2.76,-1.19 -8.71,-1.7l0.12,-1.39c10.08,0.87 10.08,2.48 10.08,3.08c0,3.4 -18.17,3.49 -20.24,3.49z" fill="#2f2e41" id="svg_29"/>
  <path d="m286.25,191.4c-2.08,0 -20.25,-0.1 -20.25,-3.5s18.17,-3.49 20.25,-3.49l0,1.4c-10.71,0 -17.65,1.2 -18.76,2.09c1.11,0.9 8.05,2.1 18.76,2.1c10.67,0 17.61,-1.19 18.75,-2.09c-0.54,-0.38 -2.76,-1.19 -8.71,-1.7l0.12,-1.39c10.08,0.87 10.08,2.48 10.08,3.08c0,3.4 -18.17,3.5 -20.24,3.5z" fill="#2f2e41" id="svg_30"/>
  <path d="m286.25,230.49c-2.08,0 -20.25,-0.1 -20.25,-3.49s18.17,-3.49 20.25,-3.49l0,1.39c-10.71,0 -17.65,1.2 -18.76,2.1c1.11,0.89 8.05,2.09 18.76,2.09c10.67,0 17.61,-1.19 18.75,-2.09c-0.54,-0.38 -2.76,-1.19 -8.71,-1.7l0.12,-1.39c10.08,0.87 10.08,2.48 10.08,3.09c0,3.39 -18.17,3.49 -20.24,3.49z" fill="#2f2e41" id="svg_31"/>
  <path d="m285.25,270.58c-2.08,0 -20.25,-0.1 -20.25,-3.49s18.17,-3.49 20.25,-3.49l0,1.39c-10.71,0 -17.65,1.2 -18.76,2.1c1.11,0.89 8.05,2.09 18.76,2.09c10.67,0 17.61,-1.19 18.75,-2.09c-0.54,-0.38 -2.76,-1.18 -8.71,-1.7l0.12,-1.39c10.08,0.87 10.08,2.48 10.08,3.09c0,3.39 -18.17,3.49 -20.24,3.49z" fill="#2f2e41" id="svg_32"/>
  <path d="m287.25,309.67c-2.08,0 -20.25,-0.1 -20.25,-3.49s18.17,-3.49 20.25,-3.49l0,1.39c-10.71,0 -17.65,1.2 -18.76,2.1c1.11,0.89 8.05,2.09 18.76,2.09c10.67,0 17.61,-1.19 18.75,-2.09c-0.54,-0.38 -2.76,-1.18 -8.71,-1.7l0.12,-1.39c10.08,0.87 10.08,2.48 10.08,3.09c0,3.39 -18.17,3.49 -20.24,3.49z" fill="#2f2e41" id="svg_33"/>
  <path d="m286.25,348.76c-2.08,0 -20.25,-0.1 -20.25,-3.49s18.17,-3.49 20.25,-3.49l0,1.39c-10.71,0 -17.65,1.2 -18.76,2.1c1.11,0.89 8.05,2.09 18.76,2.09c10.67,0 17.61,-1.19 18.75,-2.09c-0.54,-0.38 -2.76,-1.18 -8.71,-1.7l0.12,-1.39c10.08,0.87 10.08,2.48 10.08,3.09c0,3.39 -18.17,3.49 -20.24,3.49z" fill="#2f2e41" id="svg_34"/>
  <path d="m286.25,387.85c-2.08,0 -20.25,-0.1 -20.25,-3.49s18.17,-3.49 20.25,-3.49l0,1.4c-10.71,0 -17.65,1.19 -18.76,2.09c1.11,0.9 8.05,2.09 18.76,2.09c10.67,0 17.61,-1.19 18.75,-2.08c-0.54,-0.39 -2.76,-1.19 -8.71,-1.71l0.12,-1.39c10.08,0.87 10.08,2.48 10.08,3.09c0,3.39 -18.17,3.49 -20.24,3.49z" fill="#2f2e41" id="svg_35"/>
  <path d="m286.25,426.94c-2.08,0 -20.25,-0.1 -20.25,-3.49s18.17,-3.49 20.25,-3.49l0,1.4c-10.71,0 -17.65,1.19 -18.76,2.09c1.11,0.9 8.05,2.09 18.76,2.09c10.67,0 17.61,-1.19 18.75,-2.08c-0.54,-0.39 -2.76,-1.19 -8.71,-1.71l0.12,-1.39c10.08,0.88 10.08,2.48 10.08,3.09c0,3.39 -18.17,3.49 -20.24,3.49z" fill="#2f2e41" id="svg_36"/>
  <path d="m532.31,176.39l-153.57,0a4.54,4.54 0 0 1 -4.54,-4.54l0,-60.03a4.54,4.54 0 0 1 4.54,-4.54l153.57,0a4.54,4.54 0 0 1 4.54,4.54l0,60.03a4.54,4.54 0 0 1 -4.54,4.54z" fill="#fff" id="svg_37"/>
  <path d="m475.07,127.87l-39.09,0a3.49,3.49 0 1 1 0,-6.98l39.09,0a3.49,3.49 0 0 1 0,6.98z" fill="#cdc1ff" id="svg_38"/>
  <path d="m496.71,145.32l-82.37,0a3.49,3.49 0 0 1 0,-6.98l82.37,0a3.49,3.49 0 0 1 0,6.98z" fill="#cdc1ff" id="svg_39"/>
  <path d="m496.71,162.78l-82.37,0a3.49,3.49 0 0 1 0,-6.99l82.37,0a3.49,3.49 0 0 1 0,6.99z" fill="#cdc1ff" id="svg_40"/>
 </g>
</svg>