<?xml version="1.0"?>
<svg width="511.56264" height="532.44842" xmlns="http://www.w3.org/2000/svg" xmlns:svg="http://www.w3.org/2000/svg">
 <g class="layer">
  <title>Layer 1</title>
  <polygon fill="#2f2e41" id="svg_1" points="454.49103 405.20843 454.48102 405.44842 466.49103 532.44842 378.85101 532.44842 367.49103 454.44842 362.49103 530.44842 272.49103 529.44842 282.05103 429.66839 290.18103 383.41839 290.18103 383.40838 291.401 376.44842 452.10101 376.44842 452.31103 378.96838 454.49103 405.20843"/>
  <path d="m222.88,478.83c9.28,1.69 18.96,-8.76 21.62,-23.35c1.16,-6.38 0.79,-12.5 -0.78,-17.5l1.42,-8.41l23.89,-113.11s43.98,-87.98 43.98,-103.25c-0.01,-15.27 -12.73,-22.76 -12.73,-22.76l-17.21,0.16l-53.98,131.85l-9.73,97.43l-1.57,13.36c-3.23,4.13 -5.74,9.72 -6.9,16.11c-2.66,14.58 2.71,27.78 11.99,29.47z" fill="#ffb6b6" id="svg_2"/>
  <polygon fill="#ffb6b6" id="svg_3" points="397.99103 135.94842 381.99103 98.94842 329.99103 107.94842 326.49103 151.47992 397.99103 135.94842"/>
  <polygon id="svg_4" opacity="0.1" points="397.99103 135.94842 381.99103 98.94842 329.99103 107.94842 326.49103 151.47992 397.99103 135.94842"/>
  <path d="m510.99,212.95s-37,-69 -44,-76c-3.11,-3.12 -8.01,-3.16 -12.49,-2.25l-51.51,-17.75l-17.46,-9.81l-1.15,18.66l-57.31,10.29c0.32,-11.38 1.92,-15.71 1.92,-15.71l-21,24.57l-41,20l0.02,0.18c-3.01,1.05 -5.86,2.85 -8.02,5.82c-8,11 -30,145 -30,145l47,10l6.4,-40.14l4.6,36.14l3.5,67.5s64,55 95,35s69,-19 69,-19l0.95,-31.29c0.67,-1.08 1.05,-1.71 1.05,-1.71l-1,-110.99l0,-29.53c7.62,10.62 16.81,19.74 27.5,24.02c35,14 28,-43 28,-43z" fill="#e6e6e6" id="svg_5"/>
  <circle cx="350.56" cy="66.62" fill="#ffb6b6" id="svg_6" r="47.84"/>
  <path d="m384.87,80.14s4.16,-14.56 13.52,-13.52c9.36,1.04 11.44,-7.28 9.36,-11.44c-2.08,-4.16 -6.24,-24.96 -6.24,-24.96c0,0 2.08,-14.56 -10.4,-16.64c-12.48,-2.08 -16.63,-4.16 -18.71,-8.32c-2.08,-4.16 -33.28,-8.32 -43.68,-2.08c-10.4,6.24 -18.72,18.21 -26,21.59c-7.28,3.37 -13.52,9.61 -9.36,20.01c4.16,10.4 10.19,30.74 10.19,30.74c0,0 10.61,-3.7 12.69,2.54c2.08,6.24 -6.24,-2.08 4.16,-18.72c10.4,-16.64 10.4,-33.28 27.04,-27.04c16.64,6.24 35.35,4.16 33.27,16.64c-2.08,12.48 4.16,31.2 4.16,31.2z" fill="#2f2e41" id="svg_7"/>
  <g id="svg_21">
   <ellipse cx="426.27" cy="70.44" fill="#cdc1ff" id="svg_22" rx="48.73" ry="47.7"/>
   <path d="m442.81,46.38c-6.49,11.81 -12.97,23.63 -19.46,35.44c-4.13,-7.31 -8.25,-14.63 -12.39,-21.92c-1.43,-2.53 -5.33,-0.26 -3.89,2.27c4.8,8.46 9.56,16.95 14.36,25.41c0.82,1.45 3.08,1.48 3.89,0c7.13,-12.97 14.26,-25.95 21.38,-38.93c1.4,-2.54 -2.49,-4.81 -3.89,-2.27z" fill="#fff" id="svg_23"/>
  </g>
  <path d="m493.54,196.17l-48.55,-23.22s-1.95,-15.55 -11.05,-21.09c-1.55,-3.69 -3.33,-7.75 -4.95,-10.96c-4,-7.95 2,-22.95 -3,-22.95s-12.39,15.77 -12,20c0.3,3.24 2.98,8.9 3.54,13.86c-6.1,2.3 -11.02,6.24 -14.25,9.38c-2.8,2.71 -3.84,6.77 -2.75,10.51c3.17,10.85 11.09,33.25 22.46,33.25c15,0 19,-3 19,-3c0,0 31,39 54,42s-2.45,-47.78 -2.45,-47.78z" fill="#ffb6b6" id="svg_24"/>
 </g>
</svg>