<svg version="1.2" xmlns="http://www.w3.org/2000/svg" viewBox="0 0 512 533" width="512" height="533"><style>.a{fill:#2f2e41}.b{fill:#ffb6b6}.c{opacity:.1}.d{fill:#e6e6e6}.e{fill:#cdc1ff}.f{fill:#fff}</style><path class="a" d="m349.5 405.2v0.2l12 127h-87.6l-11.4-78-5 76-90-1 9.6-99.7 8.1-46.3 1.2-7h160.7l0.2 2.6 2.2 26.2z"/><path class="b" d="m117.9 478.8c9.3 1.7 18.9-8.7 21.6-23.3 1.2-6.4 0.8-12.5-0.8-17.5l1.4-8.4 23.9-113.1c0 0 44-88 44-103.3 0-15.3-12.7-22.8-12.7-22.8l-17.2 0.2-54 131.9-9.7 97.4-1.6 13.3c-3.2 4.2-5.7 9.8-6.9 16.2-2.7 14.5 2.7 27.7 12 29.4z"/><path class="b" d="m293 135.9l-16-37-52 9-3.5 43.6 71.5-15.6z"/><path class="c" d="m293 135.9l-16-37-52 9-3.5 43.6 71.5-15.6z"/><path class="d" d="m406 212.9c0 0-37-69-44-76-3.1-3.1-8-3.1-12.5-2.2l-51.5-17.8-17.5-9.8-1.1 18.7-57.3 10.3c0.3-11.4 1.9-15.7 1.9-15.7l-21 24.5-41 20v0.2c-3 1.1-5.8 2.9-8 5.8-8 11-30 145-30 145l47 10 6.4-40.1 4.6 36.1 3.5 67.5c0 0 64 55 95 35 31-20 69-19 69-19l0.9-31.2c0.7-1.1 1.1-1.8 1.1-1.8l-1-110.9v-29.6c7.6 10.6 16.8 19.8 27.5 24 35 14 28-43 28-43z"/><path class="b" d="m245.6 114.5c-26.5 0-47.9-21.4-47.9-47.9 0-26.4 21.4-47.8 47.9-47.8 26.4 0 47.8 21.4 47.8 47.8 0 26.5-21.4 47.9-47.8 47.9z"/><path class="a" d="m279.9 80.1c0 0 4.1-14.5 13.5-13.5 9.4 1.1 11.4-7.3 9.4-11.4-2.1-4.2-6.3-25-6.3-25 0 0 2.1-14.5-10.4-16.6-12.5-2.1-16.6-4.2-18.7-8.3-2.1-4.2-33.3-8.4-43.7-2.1-10.4 6.2-18.7 18.2-26 21.6-7.3 3.3-13.5 9.6-9.3 20 4.1 10.4 10.2 30.7 10.2 30.7 0 0 10.6-3.7 12.6 2.6 2.1 6.2-6.2-2.1 4.2-18.8 10.4-16.6 10.4-33.2 27-27 16.7 6.2 35.4 4.2 33.3 16.6-2.1 12.5 4.2 31.2 4.2 31.2z"/><path class="e" d="m321.3 118.1c-27 0-48.8-21.3-48.8-47.7 0-26.3 21.8-47.7 48.8-47.7 26.9 0 48.7 21.4 48.7 47.7 0 26.4-21.8 47.7-48.7 47.7z"/><path class="f" d="m337.8 46.4q-9.7 17.7-19.4 35.4-6.2-11-12.4-21.9c-1.5-2.5-5.4-0.3-3.9 2.3 4.8 8.4 9.5 16.9 14.3 25.4 0.9 1.4 3.1 1.5 3.9 0q10.7-19.5 21.4-38.9c1.4-2.6-2.5-4.9-3.9-2.3z"/><path class="b" d="m388.5 196.2l-48.5-23.3c0 0.1-2-15.5-11.1-21-1.5-3.7-3.3-7.8-4.9-11-4-7.9 2-22.9-3-22.9-5-0.1-12.4 15.7-12 19.9 0.3 3.3 3 9 3.5 13.9-6.1 2.3-11 6.3-14.2 9.4-2.8 2.7-3.9 6.8-2.8 10.5 3.2 10.8 11.1 33.3 22.5 33.3 15 0 19-3 19-3 0 0 31 39 54 42 23 3-2.5-47.8-2.5-47.8z"/></svg>